{"title":"Later, With Jools Holland.s36eo3.(30th April 2010)[DTV-RIP-Divx]","uid":5523620,"size":701168644,"categoryP":"video","categoryS":"music_videos","magnet":"?xt=urn:btih:c29b8ebc4a493550c923854f87a3e8bc684366d3&amp;dn=Later%2C+With+Jools+Holland.s36eo3.%2830th+April+2010%29%5BDTV-RIP-Divx%5D&amp;tr=udp%3A%2F%2Ftracker.openbittorrent.com%3A80&amp;tr=udp%3A%2F%2Fopen.demonii.com%3A1337&amp;tr=udp%3A%2F%2Ftracker.coppersurfer.tk%3A6969&amp;tr=udp%3A%2F%2Fexodus.desync.com%3A6969","seeders":1,"leechers":0,"uploader":"seanprince","files":-1,"time":1272712861,"description":"Later, With Jools Holland.s36eo3.(30th April 2010)[DTV-RIP-Divx]\n\nFirst Shown On BBC 2 On Friday 30th April 2010 \n\n\nDescription: \n\nJoining Jools for the third show of this series are Damon Albarn and Jamie Hewlett's multimillion-selling creation Gorillaz, who are making their live debut on the show playing tunes from their latest acclaimed album Plastic Beach, with a host of special guests.\n\nLaura Marling, who at 20 has already seen herself compared to Bob Dylan and Joni Mitchell, is playing songs off her remarkable new album I Speak Because I Can. From Athens, Georgia, comes the band Drive-By Truckers, who have southern soul quite literally in their blood. The six-piece are performing a tune or two from their new album The Big To Do.\n\nThe multi-talented Mos Def is also in the studio, to play a number from his incredible The Ecstatic album as well as possibly joining in with one of the other acts. Making her UK TV debut is Michigan-born Diane Birch, who has been causing a stir in the US with her album Bible Belt over the last few months. And jazz legend Bobby McFerrin performs a number from his new VOCAbuLarieS album.\n\nLaura Marling\n\nLaura Marling Returns to the Later studio, having made her TV debut on the show in 2007. She has just scored her first top ten hit with second album I Speak Because I Can.\n\nGorillaz \n\nGorillaz finally make their physical TV debut on Later, with a whole host of guests, including Bobby Womack, Gruff Rhys, Kano, De La Soul and Little Dragon.\n\nMos Def\n\nMusician, Rapper and actor Mos Def is a man of many talents. He joins us in the Later studio not only to perform a track from 2009 album The Ecstatic but also to join Gorillaz on a number too.\n\nDrive-By Truckers\n\nAthens, Georgia-based Drive-By Truckers wrote 25 songs in 25 days during intense recording sessions for new album, The Big To Do. They'll be visiting the Later studio for the first time this series.\n\nDiane Birch\n\nDiane Birch is a 27-year-old singer songwriter who has already drawn comparisons to the greats such as Carole King. Her debut album Bible Belt is out this week as she makes her TV debut in the Later studio.\n\nBobby McFerrin\n\nBobby McFerrin's trademark style often sounds like two or three singers at once. Most famous for his 1988 hit Don't Worry Be Happy, the ten-time Grammy winner released latest album VOCAbuLarieS this year.\n \n\nGeneral\n \nComplete name :Later.s36eo3.divx \nFormat : AVI \nFormat/Info : Audio Video Interleave \nFile size : 669 MiB \nDuration : 1h 2mn \nOverall bit rate : 1 502 Kbps \n\nVideo \nID : 0 \nFormat : MPEG-4 Visual \nFormat settings, BVOP : Yes \nFormat settings, QPel : No \nFormat settings, GMC : No warppoints \nFormat settings, Matrix : Default (H.263) \nMuxing mode : Packed bitstream \nCodec ID : DX50 \nCodec ID/Hint : DivX 5 \nDuration : 1h 2mn \nBit rate : 1 301 Kbps \nWidth : 688 pixels \nHeight : 384 pixels \nDisplay aspect ratio : 16:9 \nFrame rate : 25.000 fps \nResolution : 8 bits \nColorimetry : 4:2:0 \nScan type : Progressive \nBits/(Pixel*Frame) : 0.197 \nStream size : 579 MiB (87%) \nTitle : Video  \nWriting library : DivX 6.8.2 (UTC 2008-05-17) \n\nAudio \nID : 1 \nFormat : AC-3 \nFormat/Info : Audio Coding 3 \nCodec ID : 2000 \nDuration : 1h 2mn \nBit rate mode : Constant \nBit rate : 192 Kbps \nChannel(s) : 2 channels \nChannel positions : Front: L R \nSampling rate : 48.0 KHz \nStream size : 85.5 MiB (13%) \nAlignment : Split accross interleaves \nInterleave, duration : 40 ms (1.00 video frame) \nInterleave, preload duration : 500 ms \n\n\n\n\n\n\n","torrent":{"xt":"urn:btih:c29b8ebc4a493550c923854f87a3e8bc684366d3","amp;dn":"Later%2C+With+Jools+Holland.s36eo3.%2830th+April+2010%29%5BDTV-RIP-Divx%5D","amp;tr":["udp%3A%2F%2Ftracker.openbittorrent.com%3A80","udp%3A%2F%2Fopen.demonii.com%3A1337","udp%3A%2F%2Ftracker.coppersurfer.tk%3A6969","udp%3A%2F%2Fexodus.desync.com%3A6969"],"infoHash":"c29b8ebc4a493550c923854f87a3e8bc684366d3","infoHashBuffer":{"type":"Buffer","data":[194,155,142,188,74,73,53,80,201,35,133,79,135,163,232,188,104,67,102,211]},"announce":[],"urlList":[]}}